<svg width="24" height="24" viewBox="0 0 24 24" fill="none"
    xmlns="http://www.w3.org/2000/svg">
    <path d="M7 6.5C7 5.12 8.12 4 9.5 4H14.5C15.88 4 17 5.12 17 6.5V8H15V6.5C15 6.22 14.78 6 14.5 6H9.5C9.22 6 9 6.22 9 6.5V17.5C9 17.78 9.22 18 9.5 18H14.5C14.78 18 15 17.78 15 17.5V16H17V17.5C17 18.88 15.88 20 14.5 20H9.5C8.12 20 7 18.88 7 17.5V6.5Z" fill="#C5C5C5"/>
    <path d="M3 12L6.5 8.5V10.5H13V13.5H6.5V15.5L3 12Z" fill="#C5C5C5"/>
    <path d="M21 12L17.5 15.5V13.5H11V10.5H17.5V8.5L21 12Z" fill="#C5C5C5"/>
</svg>
